<?xml version="1.0" encoding="UTF-8"?>
<svg version="1.1" xmlns="http://www.w3.org/2000/svg" width="800" height="800">
<path d="M0 0 C1.89928526 3.2489333 2.33857891 5.88219694 2.57836914 9.61962891 C2.65507339 10.74825348 2.73177765 11.87687805 2.81080627 13.03970337 C2.88484177 14.25636688 2.95887726 15.4730304 3.03515625 16.7265625 C3.11873886 17.98455658 3.20232147 19.24255066 3.28843689 20.53866577 C3.50948557 23.88490115 3.72328128 27.23143402 3.93328857 30.57836914 C4.22939313 35.26848632 4.53917234 39.95772296 4.84727478 44.64706421 C5.01027346 47.1400729 5.17069581 49.63325181 5.32814026 52.12661743 C5.75382847 58.76807619 6.27726194 65.38397199 7 72 C7.42345703 71.55575684 7.84691406 71.11151367 8.28320312 70.65380859 C13.45587414 65.27139006 19.15197917 60.62248623 25 56 C25.64372559 55.49049805 26.28745117 54.98099609 26.95068359 54.45605469 C36.05807193 47.26791295 45.28376496 40.26189134 54.65087891 33.41601562 C61.86886414 28.13043943 68.97721955 22.70611325 76.05981445 17.24072266 C76.89343506 16.60054199 77.72705566 15.96036133 78.5859375 15.30078125 C79.3186084 14.73528564 80.0512793 14.16979004 80.80615234 13.5871582 C83.12831397 11.90717014 85.5234868 10.44050971 88 9 C87.38550858 13.63009553 85.45996574 17.394825 83.31640625 21.4765625 C82.94518143 22.19521484 82.5739566 22.91386719 82.19148254 23.65429688 C80.98770981 25.98097147 79.77517678 28.30295582 78.5625 30.625 C77.73270479 32.22547356 76.90344173 33.82622314 76.07470703 35.42724609 C72.27236457 42.76362623 68.44054712 50.08398051 64.56518555 57.38208008 C62.69202595 60.91207335 60.83610683 64.45059424 59 68 C58.64260742 68.6904541 58.28521484 69.3809082 57.91699219 70.09228516 C44.85298536 95.64793718 36.60874685 128.23494126 37 157 C37.63800537 157.25579834 38.27601074 157.51159668 38.93334961 157.77514648 C61.02557742 166.67987941 81.24242993 176.52483111 99.87890625 191.546875 C102.88963931 194.00064964 102.88963931 194.00064964 105.90234375 195.828125 C110.71958161 199.19523986 113.03783506 202.20539057 114.2578125 207.94140625 C114.7560005 210.76960339 115.16906961 213.5767796 115.47290039 216.43237305 C117.82007733 236.98046592 127.77287781 256.39623403 135.9375 275.125 C137.51713822 278.7714387 139.09432663 282.41893028 140.6713562 286.0664978 C141.69174389 288.42416088 142.71411033 290.78096865 143.73855591 293.13687134 C145.98759532 298.31327745 148.2186584 303.49397824 150.36865234 308.71240234 C150.72592911 309.57743378 151.08320587 310.44246521 151.4513092 311.33370972 C152.09150062 312.89168917 152.7258192 314.45210433 153.35227966 316.01565552 C155.33584272 320.84288422 157.78345037 325.08496516 160.75 329.375 C161.44258911 330.37660156 161.44258911 330.37660156 162.14916992 331.3984375 C162.52662354 331.92695313 162.90407715 332.45546875 163.29296875 333 C168.25688873 340.16705942 172.38099759 347.88434606 176.60986328 355.49853516 C177.47249024 357.05077888 178.33977886 358.6004536 179.21435547 360.14599609 C199.88938797 396.71524014 212.1028053 437.40167005 217 479 C217.1546875 480.29067383 217.1546875 480.29067383 217.3125 481.60742188 C218.21922589 490.17598156 218.24351798 498.76808146 218.25 507.375 C218.25101212 508.59070175 218.25101212 508.59070175 218.25204468 509.83096313 C218.19116071 556.26835672 206.47252478 599.58193891 191 643 C188 643 188 643 186.36181641 641.6105957 C185.78093262 640.97210693 185.20004883 640.33361816 184.6015625 639.67578125 C183.95703125 638.97646484 183.3125 638.27714844 182.6484375 637.55664062 C181.98070312 636.81607422 181.31296875 636.07550781 180.625 635.3125 C179.3053827 633.87045726 177.98508448 632.4290373 176.6640625 630.98828125 C176.03918945 630.30330566 175.41431641 629.61833008 174.77050781 628.91259766 C172.57494696 626.54083487 170.30950113 624.26045767 168 622 C167.76047607 622.93960571 167.76047607 622.93960571 167.51611328 623.89819336 C158.09398597 660.34694903 142.96824739 694.72637917 119 724 C118.56864746 724.52754883 118.13729492 725.05509766 117.69287109 725.59863281 C94.14792779 754.25830458 66.64856791 776.71354267 35 796 C34.01 796.66 33.02 797.32 32 798 C29.8125 797.625 29.8125 797.625 28 797 C26.71206079 792.09030265 25.43049698 787.17900196 24.15478516 782.26611328 C23.72000695 780.59541074 23.28349709 778.92515783 22.84521484 777.25537109 C22.21515236 774.85370435 21.59135681 772.45048382 20.96875 770.046875 C20.77188599 769.30193787 20.57502197 768.55700073 20.37219238 767.78948975 C19.49462945 764.37821644 19 761.54979742 19 758 C18.33282959 758.34667725 17.66565918 758.69335449 16.97827148 759.05053711 C-47.05284883 792.14668739 -117.60665891 805.60068173 -188 786 C-188.89106445 785.7529834 -189.78212891 785.5059668 -190.70019531 785.25146484 C-208.96211607 780.03328115 -226.6745639 771.66823377 -243 762 C-242.35771482 753.46188897 -240.78120223 745.16643024 -239.16070557 736.77410889 C-236.61261051 723.51895325 -234.30960098 710.26892437 -232.625 696.875 C-232.46990967 695.64563721 -232.31481934 694.41627441 -232.1550293 693.1496582 C-230.67227126 680.92514193 -229.80533724 668.881653 -229.8125 656.5625 C-229.81258057 655.25804932 -229.81266113 653.95359863 -229.81274414 652.60961914 C-229.88572689 640.09576607 -230.26049731 627.26606161 -233 615 C-233.34667725 615.42708252 -233.69335449 615.85416504 -234.05053711 616.29418945 C-234.7815564 617.19463989 -234.7815564 617.19463989 -235.52734375 618.11328125 C-236.06738037 618.77851807 -236.60741699 619.44375488 -237.16381836 620.12915039 C-238.35788174 621.59900708 -239.55272092 623.06823383 -240.74829102 624.53686523 C-243.30358919 627.67605472 -245.85447557 630.81713706 -248.375 633.984375 C-263.33393746 652.68304682 -280.74623975 671.7256605 -300 686 C-300.59683594 686.44666016 -301.19367188 686.89332031 -301.80859375 687.35351562 C-305.61138306 690.19619476 -309.42228536 693.02793807 -313.29150391 695.77978516 C-314.94361445 696.95972921 -316.57195951 698.1727317 -318.19921875 699.38671875 C-321 701 -321 701 -322.97680664 700.89111328 C-325.81777784 699.63981065 -326.6035058 698.01565665 -328.171875 695.35546875 C-329.03897095 693.89089233 -329.03897095 693.89089233 -329.92358398 692.39672852 C-330.52630127 691.33768311 -331.12901855 690.2786377 -331.75 689.1875 C-332.37398682 688.09816162 -332.99797363 687.00882324 -333.64086914 685.88647461 C-351.36074301 654.31309051 -358.35133203 617.82045877 -361 582 C-361.08459473 580.87150635 -361.08459473 580.87150635 -361.17089844 579.72021484 C-362.9139551 555.07504393 -362.03598409 530.58637378 -360 506 C-360.61165512 506.18792114 -361.22331024 506.37584229 -361.85350037 506.56945801 C-368.19519615 508.51754355 -374.53748436 510.46369079 -380.88012695 512.40869141 C-383.25007267 513.13572849 -385.61986466 513.86326689 -387.98950195 514.59130859 C-391.38713343 515.63509507 -394.78530595 516.67710266 -398.18359375 517.71875 C-399.25024765 518.04685669 -400.31690155 518.37496338 -401.4158783 518.7130127 C-402.39681961 519.01332397 -403.37776093 519.31363525 -404.38842773 519.62304688 C-405.25668686 519.88952026 -406.12494598 520.15599365 -407.01951599 520.43054199 C-409 521 -409 521 -410 521 C-410.83942593 480.7010982 -410.83942593 480.7010982 -406 462 C-405.76394043 461.04367676 -405.52788086 460.08735352 -405.28466797 459.10205078 C-396.00547639 421.90750916 -380.60439612 384.79801965 -359 353 C-360.83219646 351.16780354 -363.75713741 351.76098672 -366.22265625 351.68359375 C-367.48271484 351.64169922 -368.74277344 351.59980469 -370.04101562 351.55664062 C-371.38150736 351.51682404 -372.7220022 351.47711186 -374.0625 351.4375 C-375.40691523 351.39431958 -376.7513166 351.35070544 -378.09570312 351.30664062 C-381.3970234 351.20014642 -384.69842236 351.0981354 -388 351 C-387.37591399 346.95664544 -386.07387631 343.74914707 -384.26171875 340.08984375 C-383.41178345 338.37269165 -383.41178345 338.37269165 -382.54467773 336.62084961 C-381.92658092 335.39258161 -381.30749903 334.1648089 -380.6875 332.9375 C-380.37354279 332.31295929 -380.05958557 331.68841858 -379.7361145 331.04495239 C-365.80083029 303.39045886 -348.71056077 278.03370243 -328 255 C-327.38769531 254.29617188 -326.77539062 253.59234375 -326.14453125 252.8671875 C-321.26600905 247.32049998 -316.14987588 242.04474975 -310.9375 236.8125 C-309.94665405 235.81476563 -309.94665405 235.81476563 -308.93579102 234.796875 C-295.24183974 221.14533037 -279.75995856 209.65689622 -264.04589844 198.46142578 C-261.14269436 196.3876096 -258.25833584 194.28885144 -255.375 192.1875 C-254.51648438 191.56230469 -253.65796875 190.93710938 -252.7734375 190.29296875 C-252.18820313 189.86628906 -251.60296875 189.43960938 -251 189 C-252.43680092 181.21319962 -255.09712005 174.23828811 -258.125 166.9375 C-258.61782471 165.7410083 -259.11064941 164.5445166 -259.6184082 163.31176758 C-263.3638878 154.31713982 -267.36631631 145.56848534 -272 137 C-272.32033203 136.39945801 -272.64066406 135.79891602 -272.97070312 135.18017578 C-279.23692027 123.49174987 -286.76932813 113.24074639 -295.75 103.49609375 C-298.09259566 100.89727669 -300.30145675 98.22146065 -302.5 95.5 C-305.4081338 91.9052235 -308.38541332 88.41739372 -311.5 85 C-315.40911732 80.7108296 -319.07546466 76.26562127 -322.71875 71.75 C-325.76647001 68.07603615 -328.99031335 64.57980378 -332.25 61.09375 C-334 59 -334 59 -335 56 C-328.6670595 57.97359583 -322.66122503 60.36517388 -316.63671875 63.1328125 C-315.32861992 63.72701492 -315.32861992 63.72701492 -313.99409485 64.33322144 C-311.22328797 65.59293317 -308.45533056 66.85876418 -305.6875 68.125 C-302.97144919 69.36237414 -300.2548237 70.59847947 -297.53811646 71.83441162 C-295.71949012 72.6626086 -293.90152288 73.49225433 -292.084198 74.32330322 C-287.73308363 76.31150894 -283.3763077 78.28213186 -278.99462891 80.20214844 C-266.02444975 85.90531817 -253.49441046 92.322598 -241 99 C-241.12528076 98.18425003 -241.25056152 97.36850006 -241.37963867 96.5280304 C-242.56065094 88.83360828 -243.73808284 81.13864862 -244.91151428 73.4430666 C-245.51488605 69.48688605 -246.11963144 65.53092577 -246.72753906 61.57543945 C-247.31434479 57.7569184 -247.89751212 53.93785773 -248.47817993 50.11839867 C-248.70015452 48.66259213 -248.9234309 47.20698347 -249.14804077 45.75158119 C-249.46283811 43.71030576 -249.77296514 41.66837063 -250.08203125 39.6262207 C-250.25968018 38.46484085 -250.4373291 37.303461 -250.62036133 36.10688782 C-250.95590927 33.36082985 -251.07595651 30.76148366 -251 28 C-245.18665992 31.09628077 -239.75671652 34.43472261 -234.4375 38.3125 C-227.7338935 43.11706359 -220.93709073 47.75624668 -214.0625 52.3125 C-202.21212472 60.17017438 -190.43299052 68.13026375 -178.66235352 76.10668945 C-177.26581597 77.05293877 -175.86925102 77.99914764 -174.47265625 78.9453125 C-173.81100967 79.39357895 -173.1493631 79.8418454 -172.46766663 80.30369568 C-167.66015325 83.55853149 -162.83793949 86.79053879 -158 90 C-157.74768867 89.1300943 -157.74768867 89.1300943 -157.49028015 88.24261475 C-155.45983012 81.34824623 -153.18463291 74.55597186 -150.83203125 67.765625 C-150.43352463 66.61116882 -150.03501801 65.45671265 -149.62443542 64.26727295 C-148.78243314 61.82969529 -147.93942282 59.39246562 -147.09545898 56.95556641 C-145.83098248 53.3033829 -144.57051691 49.64983403 -143.31054688 45.99609375 C-141.28129851 40.11883463 -139.23627688 34.24725906 -137.1807251 28.37915039 C-136.3959039 26.13304853 -135.61523665 23.88549074 -134.83880615 21.63647461 C-133.76171599 18.51925854 -132.66998193 15.40756738 -131.57421875 12.296875 C-131.25564407 11.36482239 -130.9370694 10.43276978 -130.60884094 9.47247314 C-130.30826279 8.62916443 -130.00768463 7.78585571 -129.69799805 6.91699219 C-129.31251045 5.812034 -129.31251045 5.812034 -128.91923523 4.68475342 C-128 3 -128 3 -125 2 C-124.3915625 3.00933594 -123.783125 4.01867187 -123.15625 5.05859375 C-116.2607273 16.444599 -109.12640806 27.66716769 -101.93359375 38.8671875 C-93.17534358 52.50621598 -84.57526957 66.24541938 -76 80 C-71.06549296 75.94848066 -66.62018735 71.64486968 -62.3125 66.9375 C-61.70728516 66.28265625 -61.10207031 65.6278125 -60.47851562 64.953125 C-58.64876511 62.97201292 -56.82410228 60.98631188 -55 59 C-53.97305933 57.88634692 -52.94573917 56.77304362 -51.91796875 55.66015625 C-50.45805062 54.07932689 -48.99839957 52.49826306 -47.5402832 50.91577148 C-43.12340917 46.12383166 -38.67584084 41.3608763 -34.22412109 36.60131836 C-30.85104926 32.9923837 -27.49536717 29.3684883 -24.1550293 25.72924805 C-19.80876067 20.99461012 -15.39993632 16.35463467 -10.81640625 11.84765625 C-8.23696585 9.22383838 -5.83821277 6.45763444 -3.4453125 3.6640625 C-2.34597202 2.39833536 -1.1854566 1.1854566 0 0 Z " fill="#3D195B" transform="translate(496,2)"/>
<path d="M0 0 C1.89928526 3.2489333 2.33857891 5.88219694 2.57836914 9.61962891 C2.65507339 10.74825348 2.73177765 11.87687805 2.81080627 13.03970337 C2.88484177 14.25636688 2.95887726 15.4730304 3.03515625 16.7265625 C3.11873886 17.98455658 3.20232147 19.24255066 3.28843689 20.53866577 C3.50948557 23.88490115 3.72328128 27.23143402 3.93328857 30.57836914 C4.22939313 35.26848632 4.53917234 39.95772296 4.84727478 44.64706421 C5.01027346 47.1400729 5.17069581 49.63325181 5.32814026 52.12661743 C5.75382847 58.76807619 6.27726194 65.38397199 7 72 C7.42345703 71.55575684 7.84691406 71.11151367 8.28320312 70.65380859 C13.45587414 65.27139006 19.15197917 60.62248623 25 56 C25.64372559 55.49049805 26.28745117 54.98099609 26.95068359 54.45605469 C36.05807193 47.26791295 45.28376496 40.26189134 54.65087891 33.41601562 C61.86886414 28.13043943 68.97721955 22.70611325 76.05981445 17.24072266 C76.89343506 16.60054199 77.72705566 15.96036133 78.5859375 15.30078125 C79.3186084 14.73528564 80.0512793 14.16979004 80.80615234 13.5871582 C83.12831397 11.90717014 85.5234868 10.44050971 88 9 C87.38550858 13.63009553 85.45996574 17.394825 83.31640625 21.4765625 C82.94518143 22.19521484 82.5739566 22.91386719 82.19148254 23.65429688 C80.98770981 25.98097147 79.77517678 28.30295582 78.5625 30.625 C77.73270479 32.22547356 76.90344173 33.82622314 76.07470703 35.42724609 C72.27236457 42.76362623 68.44054712 50.08398051 64.56518555 57.38208008 C62.69202595 60.91207335 60.83610683 64.45059424 59 68 C58.64260742 68.6904541 58.28521484 69.3809082 57.91699219 70.09228516 C44.85298536 95.64793718 36.60874685 128.23494126 37 157 C37.63800537 157.25579834 38.27601074 157.51159668 38.93334961 157.77514648 C61.02557742 166.67987941 81.24242993 176.52483111 99.87890625 191.546875 C102.88963931 194.00064964 102.88963931 194.00064964 105.90234375 195.828125 C110.71958161 199.19523986 113.03783506 202.20539057 114.2578125 207.94140625 C114.7560005 210.76960339 115.16906961 213.5767796 115.47290039 216.43237305 C117.82007733 236.98046592 127.77287781 256.39623403 135.9375 275.125 C137.51713822 278.7714387 139.09432663 282.41893028 140.6713562 286.0664978 C141.69174389 288.42416088 142.71411033 290.78096865 143.73855591 293.13687134 C145.98759532 298.31327745 148.2186584 303.49397824 150.36865234 308.71240234 C150.72592911 309.57743378 151.08320587 310.44246521 151.4513092 311.33370972 C152.09150062 312.89168917 152.7258192 314.45210433 153.35227966 316.01565552 C155.33584272 320.84288422 157.78345037 325.08496516 160.75 329.375 C161.44258911 330.37660156 161.44258911 330.37660156 162.14916992 331.3984375 C162.52662354 331.92695313 162.90407715 332.45546875 163.29296875 333 C168.25688873 340.16705942 172.38099759 347.88434606 176.60986328 355.49853516 C177.47249024 357.05077888 178.33977886 358.6004536 179.21435547 360.14599609 C199.88938797 396.71524014 212.1028053 437.40167005 217 479 C217.1546875 480.29067383 217.1546875 480.29067383 217.3125 481.60742188 C218.21922589 490.17598156 218.24351798 498.76808146 218.25 507.375 C218.25101212 508.59070175 218.25101212 508.59070175 218.25204468 509.83096313 C218.19116071 556.26835672 206.47252478 599.58193891 191 643 C188 643 188 643 186.36181641 641.6105957 C185.78093262 640.97210693 185.20004883 640.33361816 184.6015625 639.67578125 C183.95703125 638.97646484 183.3125 638.27714844 182.6484375 637.55664062 C181.98070312 636.81607422 181.31296875 636.07550781 180.625 635.3125 C179.3053827 633.87045726 177.98508448 632.4290373 176.6640625 630.98828125 C176.03918945 630.30330566 175.41431641 629.61833008 174.77050781 628.91259766 C172.57494696 626.54083487 170.30950113 624.26045767 168 622 C167.76047607 622.93960571 167.76047607 622.93960571 167.51611328 623.89819336 C158.09398597 660.34694903 142.96824739 694.72637917 119 724 C118.56864746 724.52754883 118.13729492 725.05509766 117.69287109 725.59863281 C94.14792779 754.25830458 66.64856791 776.71354267 35 796 C34.01 796.66 33.02 797.32 32 798 C29.8125 797.625 29.8125 797.625 28 797 C26.71206079 792.09030265 25.43049698 787.17900196 24.15478516 782.26611328 C23.72000695 780.59541074 23.28349709 778.92515783 22.84521484 777.25537109 C22.21515236 774.85370435 21.59135681 772.45048382 20.96875 770.046875 C20.77188599 769.30193787 20.57502197 768.55700073 20.37219238 767.78948975 C19.49462945 764.37821644 19 761.54979742 19 758 C18.33282959 758.34667725 17.66565918 758.69335449 16.97827148 759.05053711 C-47.05284883 792.14668739 -117.60665891 805.60068173 -188 786 C-188.89106445 785.7529834 -189.78212891 785.5059668 -190.70019531 785.25146484 C-208.96211607 780.03328115 -226.6745639 771.66823377 -243 762 C-242.35771482 753.46188897 -240.78120223 745.16643024 -239.16070557 736.77410889 C-236.61261051 723.51895325 -234.30960098 710.26892437 -232.625 696.875 C-232.46990967 695.64563721 -232.31481934 694.41627441 -232.1550293 693.1496582 C-230.67227126 680.92514193 -229.80533724 668.881653 -229.8125 656.5625 C-229.81258057 655.25804932 -229.81266113 653.95359863 -229.81274414 652.60961914 C-229.88572689 640.09576607 -230.26049731 627.26606161 -233 615 C-233.34667725 615.42708252 -233.69335449 615.85416504 -234.05053711 616.29418945 C-234.7815564 617.19463989 -234.7815564 617.19463989 -235.52734375 618.11328125 C-236.06738037 618.77851807 -236.60741699 619.44375488 -237.16381836 620.12915039 C-238.35788174 621.59900708 -239.55272092 623.06823383 -240.74829102 624.53686523 C-243.30358919 627.67605472 -245.85447557 630.81713706 -248.375 633.984375 C-263.33393746 652.68304682 -280.74623975 671.7256605 -300 686 C-300.59683594 686.44666016 -301.19367188 686.89332031 -301.80859375 687.35351562 C-305.61138306 690.19619476 -309.42228536 693.02793807 -313.29150391 695.77978516 C-314.94361445 696.95972921 -316.57195951 698.1727317 -318.19921875 699.38671875 C-321 701 -321 701 -322.97680664 700.89111328 C-325.81777784 699.63981065 -326.6035058 698.01565665 -328.171875 695.35546875 C-329.03897095 693.89089233 -329.03897095 693.89089233 -329.92358398 692.39672852 C-330.52630127 691.33768311 -331.12901855 690.2786377 -331.75 689.1875 C-332.37398682 688.09816162 -332.99797363 687.00882324 -333.64086914 685.88647461 C-351.36074301 654.31309051 -358.35133203 617.82045877 -361 582 C-361.08459473 580.87150635 -361.08459473 580.87150635 -361.17089844 579.72021484 C-362.9139551 555.07504393 -362.03598409 530.58637378 -360 506 C-360.61165512 506.18792114 -361.22331024 506.37584229 -361.85350037 506.56945801 C-368.19519615 508.51754355 -374.53748436 510.46369079 -380.88012695 512.40869141 C-383.25007267 513.13572849 -385.61986466 513.86326689 -387.98950195 514.59130859 C-391.38713343 515.63509507 -394.78530595 516.67710266 -398.18359375 517.71875 C-399.25024765 518.04685669 -400.31690155 518.37496338 -401.4158783 518.7130127 C-402.39681961 519.01332397 -403.37776093 519.31363525 -404.38842773 519.62304688 C-405.25668686 519.88952026 -406.12494598 520.15599365 -407.01951599 520.43054199 C-409 521 -409 521 -410 521 C-410.83942593 480.7010982 -410.83942593 480.7010982 -406 462 C-405.76394043 461.04367676 -405.52788086 460.08735352 -405.28466797 459.10205078 C-396.00547639 421.90750916 -380.60439612 384.79801965 -359 353 C-360.83219646 351.16780354 -363.75713741 351.76098672 -366.22265625 351.68359375 C-367.48271484 351.64169922 -368.74277344 351.59980469 -370.04101562 351.55664062 C-371.38150736 351.51682404 -372.7220022 351.47711186 -374.0625 351.4375 C-375.40691523 351.39431958 -376.7513166 351.35070544 -378.09570312 351.30664062 C-381.3970234 351.20014642 -384.69842236 351.0981354 -388 351 C-387.37591399 346.95664544 -386.07387631 343.74914707 -384.26171875 340.08984375 C-383.41178345 338.37269165 -383.41178345 338.37269165 -382.54467773 336.62084961 C-381.92658092 335.39258161 -381.30749903 334.1648089 -380.6875 332.9375 C-380.37354279 332.31295929 -380.05958557 331.68841858 -379.7361145 331.04495239 C-365.80083029 303.39045886 -348.71056077 278.03370243 -328 255 C-327.38769531 254.29617188 -326.77539062 253.59234375 -326.14453125 252.8671875 C-321.26600905 247.32049998 -316.14987588 242.04474975 -310.9375 236.8125 C-309.94665405 235.81476563 -309.94665405 235.81476563 -308.93579102 234.796875 C-295.24183974 221.14533037 -279.75995856 209.65689622 -264.04589844 198.46142578 C-261.14269436 196.3876096 -258.25833584 194.28885144 -255.375 192.1875 C-254.51648438 191.56230469 -253.65796875 190.93710938 -252.7734375 190.29296875 C-252.18820313 189.86628906 -251.60296875 189.43960938 -251 189 C-252.43680092 181.21319962 -255.09712005 174.23828811 -258.125 166.9375 C-258.61782471 165.7410083 -259.11064941 164.5445166 -259.6184082 163.31176758 C-263.3638878 154.31713982 -267.36631631 145.56848534 -272 137 C-272.32033203 136.39945801 -272.64066406 135.79891602 -272.97070312 135.18017578 C-279.23692027 123.49174987 -286.76932813 113.24074639 -295.75 103.49609375 C-298.09259566 100.89727669 -300.30145675 98.22146065 -302.5 95.5 C-305.4081338 91.9052235 -308.38541332 88.41739372 -311.5 85 C-315.40911732 80.7108296 -319.07546466 76.26562127 -322.71875 71.75 C-325.76647001 68.07603615 -328.99031335 64.57980378 -332.25 61.09375 C-334 59 -334 59 -335 56 C-328.6670595 57.97359583 -322.66122503 60.36517388 -316.63671875 63.1328125 C-315.32861992 63.72701492 -315.32861992 63.72701492 -313.99409485 64.33322144 C-311.22328797 65.59293317 -308.45533056 66.85876418 -305.6875 68.125 C-302.97144919 69.36237414 -300.2548237 70.59847947 -297.53811646 71.83441162 C-295.71949012 72.6626086 -293.90152288 73.49225433 -292.084198 74.32330322 C-287.73308363 76.31150894 -283.3763077 78.28213186 -278.99462891 80.20214844 C-266.02444975 85.90531817 -253.49441046 92.322598 -241 99 C-241.12528076 98.18425003 -241.25056152 97.36850006 -241.37963867 96.5280304 C-242.56065094 88.83360828 -243.73808284 81.13864862 -244.91151428 73.4430666 C-245.51488605 69.48688605 -246.11963144 65.53092577 -246.72753906 61.57543945 C-247.31434479 57.7569184 -247.89751212 53.93785773 -248.47817993 50.11839867 C-248.70015452 48.66259213 -248.9234309 47.20698347 -249.14804077 45.75158119 C-249.46283811 43.71030576 -249.77296514 41.66837063 -250.08203125 39.6262207 C-250.25968018 38.46484085 -250.4373291 37.303461 -250.62036133 36.10688782 C-250.95590927 33.36082985 -251.07595651 30.76148366 -251 28 C-245.18665992 31.09628077 -239.75671652 34.43472261 -234.4375 38.3125 C-227.7338935 43.11706359 -220.93709073 47.75624668 -214.0625 52.3125 C-202.21212472 60.17017438 -190.43299052 68.13026375 -178.66235352 76.10668945 C-177.26581597 77.05293877 -175.86925102 77.99914764 -174.47265625 78.9453125 C-173.81100967 79.39357895 -173.1493631 79.8418454 -172.46766663 80.30369568 C-167.66015325 83.55853149 -162.83793949 86.79053879 -158 90 C-157.74768867 89.1300943 -157.74768867 89.1300943 -157.49028015 88.24261475 C-155.45983012 81.34824623 -153.18463291 74.55597186 -150.83203125 67.765625 C-150.43352463 66.61116882 -150.03501801 65.45671265 -149.62443542 64.26727295 C-148.78243314 61.82969529 -147.93942282 59.39246562 -147.09545898 56.95556641 C-145.83098248 53.3033829 -144.57051691 49.64983403 -143.31054688 45.99609375 C-141.28129851 40.11883463 -139.23627688 34.24725906 -137.1807251 28.37915039 C-136.3959039 26.13304853 -135.61523665 23.88549074 -134.83880615 21.63647461 C-133.76171599 18.51925854 -132.66998193 15.40756738 -131.57421875 12.296875 C-131.25564407 11.36482239 -130.9370694 10.43276978 -130.60884094 9.47247314 C-130.30826279 8.62916443 -130.00768463 7.78585571 -129.69799805 6.91699219 C-129.31251045 5.812034 -129.31251045 5.812034 -128.91923523 4.68475342 C-128 3 -128 3 -125 2 C-124.3915625 3.00933594 -123.783125 4.01867187 -123.15625 5.05859375 C-116.2607273 16.444599 -109.12640806 27.66716769 -101.93359375 38.8671875 C-93.17534358 52.50621598 -84.57526957 66.24541938 -76 80 C-71.06549296 75.94848066 -66.62018735 71.64486968 -62.3125 66.9375 C-61.70728516 66.28265625 -61.10207031 65.6278125 -60.47851562 64.953125 C-58.64876511 62.97201292 -56.82410228 60.98631188 -55 59 C-53.97305933 57.88634692 -52.94573917 56.77304362 -51.91796875 55.66015625 C-50.45805062 54.07932689 -48.99839957 52.49826306 -47.5402832 50.91577148 C-43.12340917 46.12383166 -38.67584084 41.3608763 -34.22412109 36.60131836 C-30.85104926 32.9923837 -27.49536717 29.3684883 -24.1550293 25.72924805 C-19.80876067 20.99461012 -15.39993632 16.35463467 -10.81640625 11.84765625 C-8.23696585 9.22383838 -5.83821277 6.45763444 -3.4453125 3.6640625 C-2.34597202 2.39833536 -1.1854566 1.1854566 0 0 Z M-218 191 C-218 191.33 -218 191.66 -218 192 C-217.39414062 192.09796875 -216.78828125 192.1959375 -216.1640625 192.296875 C-200.42046806 195.10650108 -189.84718694 202.42912306 -180 215 C-178.14669095 217.92036577 -176.49806709 220.8834182 -175 224 C-175.33 224.33 -175.66 224.66 -176 225 C-177.07378906 224.44570312 -178.14757812 223.89140625 -179.25390625 223.3203125 C-180.68993891 222.58821742 -182.12614618 221.85646477 -183.5625 221.125 C-184.26697266 220.76019531 -184.97144531 220.39539063 -185.69726562 220.01953125 C-193.60814428 216.00940843 -200.55287178 214.63760304 -209.375 214.625 C-210.26960937 214.60050781 -211.16421875 214.57601562 -212.0859375 214.55078125 C-222.40824554 214.50577119 -230.6840185 218.80825215 -238 226 C-248.60733376 239.60095906 -249.29683491 254.88140849 -247.59765625 271.33203125 C-246.11624535 282.67367081 -241.76842413 292.68162855 -237 303 C-252.28933413 292.87889149 -261.90226816 280.47772068 -266.3125 262.3125 C-268.37241299 249.97282891 -267.21919908 237.99740537 -264 226 C-263.78730469 225.20078125 -263.57460938 224.4015625 -263.35546875 223.578125 C-262.92919091 222.04475149 -262.47058761 220.52035996 -262 219 C-287.13256992 230.44534874 -312.06550421 259.03705428 -328 281 C-329.30524092 282.58932276 -330.61751097 284.17290468 -331.9375 285.75 C-340.55189765 296.53992781 -347.79341539 308.3747497 -354.6875 320.3125 C-355.20473633 321.20171143 -355.72197266 322.09092285 -356.25488281 323.00708008 C-356.73151367 323.84650146 -357.20814453 324.68592285 -357.69921875 325.55078125 C-358.12033936 326.28981689 -358.54145996 327.02885254 -358.9753418 327.7902832 C-360.0855106 330.18440707 -360.58349287 332.4018976 -361 335 C-357.1896065 335.67908897 -353.37640981 336.34097063 -349.5625 337 C-348.49322266 337.19078125 -347.42394531 337.3815625 -346.32226562 337.578125 C-340.11337002 338.64142211 -334.29838048 339.21193289 -328 339 C-329.91859265 342.40943349 -332.08097805 345.4271472 -334.5637207 348.44799805 C-366.75164459 387.74048946 -393.85507766 447.62502953 -394 499 C-385.02149816 496.65067079 -376.15444182 493.96029186 -367.28369141 491.23876953 C-364.87336702 490.49949915 -362.46213883 489.76323622 -360.05078125 489.02734375 C-352.67024795 486.7706422 -345.3038486 484.49646557 -338 482 C-338.39832031 483.2375 -338.39832031 483.2375 -338.8046875 484.5 C-341.597359 493.63223964 -343.17047756 502.48080878 -344 512 C-344.08612549 512.94206299 -344.17225098 513.88412598 -344.26098633 514.85473633 C-345.1593637 525.79026932 -345.2850111 536.71988151 -345.3125 547.6875 C-345.31642761 549.19509888 -345.31642761 549.19509888 -345.32043457 550.7331543 C-345.32569935 569.74200056 -343.85187149 588.21907485 -341 607 C-340.84515137 608.06524902 -340.69030273 609.13049805 -340.53076172 610.22802734 C-337.16345876 632.91909991 -331.51127234 659.00632669 -318 678 C-313.89715986 676.62267001 -311.33157616 674.76356341 -308.1875 671.8125 C-305.31818692 669.13977933 -302.43380994 666.51174193 -299.453125 663.96484375 C-294.14871951 659.33868402 -289.18366829 654.36971153 -284.2097168 649.39501953 C-282.57424118 647.76172552 -280.93092292 646.1366153 -279.28710938 644.51171875 C-272.72503323 637.98420426 -266.76087308 631.25316092 -261 624 C-260.07691922 622.90991991 -259.14729347 621.82529516 -258.20703125 620.75 C-245.99005097 606.719406 -235.40657084 591.39747727 -225 576 C-212.97887559 614.82823184 -210.83360801 653.66141742 -215 694 C-215.08008301 694.7832666 -215.16016602 695.5665332 -215.24267578 696.37353516 C-216.48278385 708.11375148 -218.67623936 719.65965263 -221.08203125 731.20703125 C-221.26523926 732.09616211 -221.44844727 732.98529297 -221.63720703 733.90136719 C-221.99492726 735.63124761 -222.35884789 737.35986148 -222.72998047 739.08691406 C-223.71264001 743.83244064 -224.18864589 748.15375202 -224 753 C-212.46467765 759.66249033 -200.58706247 764.66080784 -188 769 C-187.28602051 769.24878906 -186.57204102 769.49757813 -185.83642578 769.75390625 C-138.54108698 785.75909704 -83.43586243 781.56231607 -37 765 C-36.17081055 764.70754395 -35.34162109 764.41508789 -34.48730469 764.11376953 C-14.13356753 756.86212685 4.74356384 747.64900842 23.04321289 736.16992188 C24.98682067 735.00787964 26.96216696 733.98576367 29 733 C29.25692627 734.06959961 29.51385254 735.13919922 29.77856445 736.24121094 C30.7362269 740.21689167 31.70643411 744.18942247 32.68041992 748.16113281 C33.09985518 749.8790515 33.51590443 751.59780064 33.9284668 753.31738281 C34.52280121 755.79198818 35.12933387 758.26333054 35.73828125 760.734375 C36.01035149 761.88459137 36.01035149 761.88459137 36.28791809 763.05804443 C37.26650332 766.97567113 38.24635543 769.99350505 41 773 C54.80582865 763.40712287 54.80582865 763.40712287 68 753 C68.76594482 752.36723145 68.76594482 752.36723145 69.54736328 751.72167969 C82.58730519 740.93550798 94.61293456 729.39836147 105 716 C105.77472656 715.04222656 106.54945313 714.08445312 107.34765625 713.09765625 C118.40984325 699.1954149 127.52427744 684.09965003 135 668 C135.56976562 666.81148437 136.13953125 665.62296875 136.7265625 664.3984375 C148.43730892 639.37168134 153.90244352 613.13980221 158 586 C162.89818988 590.81654276 167.68391471 595.6575889 172.16015625 600.87109375 C175.70580241 604.97380533 179.3644673 608.9770069 183 613 C186.22157765 609.77842235 186.96687893 605.53572842 188.3125 601.25 C188.77716675 599.77249268 188.77716675 599.77249268 189.2512207 598.26513672 C193.65651322 583.94081603 196.69597626 569.3818421 199.25 554.625 C199.41330811 553.69961426 199.57661621 552.77422852 199.74487305 551.82080078 C206.42875925 511.24743936 202.31637577 468.2272419 191 429 C190.73348633 428.07074707 190.46697266 427.14149414 190.19238281 426.18408203 C179.83542921 390.93535347 161.27066927 357.83669302 140.75 327.5625 C140.29625 326.88791748 139.8425 326.21333496 139.375 325.51831055 C138.30446674 323.97301726 137.15963148 322.47960387 136 321 C135.34 321 134.68 321 134 321 C133.34 325.95 132.68 330.9 132 336 C130 336 130 336 128.50708008 334.75 C127.93368896 334.1725 127.36029785 333.595 126.76953125 333 C125.81639038 332.04492554 125.81639038 332.04492554 124.84399414 331.07055664 C124.17360107 330.38727295 123.50320801 329.70398926 122.8125 329 C122.13501709 328.31607178 121.45753418 327.63214355 120.75952148 326.92749023 C116.32785863 322.42744247 112.05449739 317.84561883 108 313 C108.58910156 312.62230469 109.17820312 312.24460937 109.78515625 311.85546875 C114.38945723 308.51251826 114.38945723 308.51251826 116.51953125 303.4375 C116.08774118 295.22181861 112.34531861 288.77073485 106.97265625 282.71484375 C105.08973178 280.6993023 105.08973178 280.6993023 102.25 281 C94.41326676 283.41130253 88.92971218 287.38569805 83 293 C79.81112731 291.49414345 76.9405092 289.69283644 74 287.75 C68.25995695 284.07266421 62.34832418 280.52710176 56 278 C55.34 278.33 54.68 278.66 54 279 C54.6290625 279.78761719 55.258125 280.57523437 55.90625 281.38671875 C62.44369244 289.67047309 68.45448532 298.15998053 73.32421875 307.5546875 C75.51586546 310.75275473 78.30098814 312.8397754 81.375 315.125 C82.64213049 316.09438944 83.90772051 317.06579533 85.171875 318.0390625 C85.81189453 318.53051758 86.45191406 319.02197266 87.11132812 319.52832031 C109.75085537 337.16935835 109.75085537 337.16935835 118 348 C117.35675781 347.73445312 116.71351563 347.46890625 116.05078125 347.1953125 C115.14714844 346.84210938 114.24351562 346.48890625 113.3125 346.125 C112.44238281 345.77695312 111.57226562 345.42890625 110.67578125 345.0703125 C99.73098442 341.88341098 88.5612768 341.59965208 77.25 341.625 C76.50319977 341.62421448 75.75639954 341.62342896 74.98696899 341.62261963 C62.96978191 341.63776091 51.47581297 342.20263724 40.33203125 347.1953125 C37.60402163 348.13663575 36.6749968 347.96483663 34 347 C32.44213867 345.69091797 32.44213867 345.69091797 30.91796875 343.9921875 C30.03093262 343.02273193 30.03093262 343.02273193 29.12597656 342.03369141 C28.16643066 340.96513916 28.16643066 340.96513916 27.1875 339.875 C20.70471149 332.81983773 14.07067017 325.9436082 7.29580688 319.17047119 C6.26921578 318.14410303 5.24379433 317.11656355 4.21957397 316.08782959 C2.76897571 314.63124066 1.31483372 313.17829306 -0.140625 311.7265625 C-0.98141602 310.88689941 -1.82220703 310.04723633 -2.68847656 309.18212891 C-4.90752571 306.98974582 -4.90752571 306.98974582 -7.26611328 305.37426758 C-9 304 -9 304 -9.6015625 301.28515625 C-9.68205035 290.21807691 -6.02609372 282.43131247 1 274 C-9.51632064 274.6784723 -17.09946379 277.64435413 -24.9921875 284.70703125 C-27 286 -27 286 -28.87109375 285.921875 C-31.79708214 284.65484149 -34.4517724 283.07637082 -37.1875 281.4375 C-60.92788972 267.21014499 -60.92788972 267.21014499 -87.4296875 265.84765625 C-99.86741281 269.66171962 -111.05297501 275.48750059 -121.4375 283.3125 C-121.99969238 283.73297607 -122.56188477 284.15345215 -123.14111328 284.58666992 C-124.86464199 285.90478085 -124.86464199 285.90478085 -127 288 C-127 288.99 -127 289.98 -127 291 C-123.51614305 292.94707673 -120.01041418 294.85128541 -116.5 296.75 C-115.53707031 297.28882813 -114.57414062 297.82765625 -113.58203125 298.3828125 C-99.11372917 306.1370659 -85.35716503 307.57399808 -69.25 307.5625 C-41.16980191 307.60507156 -41.16980191 307.60507156 -31.375 317.0625 C-30.74674316 317.63742187 -30.11848633 318.21234375 -29.47119141 318.8046875 C-27.62181096 320.51166234 -25.80610565 322.24740481 -24 324 C-23.22849609 324.74419189 -23.22849609 324.74419189 -22.44140625 325.50341797 C-19.57466011 328.28567667 -16.77874579 331.13031344 -14 334 C-11.10171784 336.91311978 -8.18518128 339.80746081 -5.265625 342.69921875 C-3.92703857 344.02860076 -2.58849776 345.35802871 -1.25 346.6875 C-0.56550781 347.36361328 0.11898438 348.03972656 0.82421875 348.73632812 C1.47519531 349.38408203 2.12617188 350.03183594 2.796875 350.69921875 C3.68391113 351.57839966 3.68391113 351.57839966 4.58886719 352.4753418 C6 354 6 354 7 356 C6.14019531 355.73445312 5.28039062 355.46890625 4.39453125 355.1953125 C3.21246094 354.84210938 2.03039062 354.48890625 0.8125 354.125 C-0.33605469 353.77695312 -1.48460937 353.42890625 -2.66796875 353.0703125 C-14.0419073 350.06389726 -25.4591191 349.68515955 -37.140625 349.62109375 C-38.75959222 349.6048679 -40.37855007 349.58768286 -41.99749756 349.56959534 C-46.22216424 349.52433556 -50.4468446 349.48931521 -54.67163086 349.45739746 C-61.44480247 349.40512841 -68.21783512 349.33983666 -74.9908371 349.26918221 C-77.33764919 349.24660343 -79.6844443 349.230176 -82.03131104 349.21446228 C-103.76364263 349.03320627 -121.57595112 343.72491307 -137.78125 328.4140625 C-146.47107539 318.95928769 -151.45597033 307.78469729 -152 295 C-157.59602175 293.25361601 -163.14466405 292.23841889 -168.9375 291.375 C-169.81212891 291.2409375 -170.68675781 291.106875 -171.58789062 290.96875 C-173.72464934 290.64181424 -175.86224299 290.32034321 -178 290 C-165.72823407 274.5650149 -148.94754638 264.6185503 -131 257 C-134.77339973 252.04741286 -138.90789714 248.56320845 -144 245 C-126.23062112 226.34215217 -98.31093572 216.50801598 -74 210 C-72.9378125 209.70867187 -71.875625 209.41734375 -70.78125 209.1171875 C-67.5334095 208.28914896 -64.29545336 207.61125345 -61 207 C-59.16695313 206.64228516 -59.16695313 206.64228516 -57.296875 206.27734375 C-44.98600691 204.62199794 -36.54071837 208.97376172 -26 215 C-25.17419434 215.46696289 -24.34838867 215.93392578 -23.49755859 216.41503906 C-12.69907734 222.57781925 -2.29986876 229.32831036 7.984375 236.30859375 C11.92594313 238.97659828 15.94646793 241.50619658 20 244 C23.58114728 238.49914915 25.73140189 233.14853956 27.3125 226.8125 C27.48362305 226.13574219 27.65474609 225.45898438 27.83105469 224.76171875 C28.77231965 220.76965944 29.17198265 217.09573498 29 213 C41.92182131 218.8615613 54.24027972 225.04673699 66 233 C67.17344971 233.78914795 67.17344971 233.78914795 68.37060547 234.59423828 C82.99733764 244.48534813 96.92063173 255.09884392 109.88671875 267.09765625 C112.18432225 269.1659241 114.57038216 271.08949491 117 273 C114.98781305 266.68286661 112.65176597 260.5642575 110.125 254.4375 C107.63908379 248.28566931 105.21514652 242.13239589 103.1875 235.8125 C102.98205566 235.17473633 102.77661133 234.53697266 102.56494141 233.87988281 C101.53057 230.45617394 100.84904735 227.17789416 100.48828125 223.6171875 C99.67325736 215.80274879 98.78290764 210.35629556 92.375 205.125 C89.98097995 203.31185432 87.50792968 201.65052849 85 200 C83.64116456 199.05708751 82.28310932 198.11304982 80.92578125 197.16796875 C71.71648871 190.88759281 62.10774068 185.67186855 52 181 C50.92105469 180.49082031 49.84210938 179.98164063 48.73046875 179.45703125 C33.61699172 172.64043278 17.31073744 167.05826327 1 164 C2.36228495 168.11124555 2.36228495 168.11124555 3.78125 172.203125 C6.66891902 180.42670418 8.32341926 188.26767992 8 197 C7.64550781 196.57332031 7.29101562 196.14664063 6.92578125 195.70703125 C-1.46790608 185.85003766 -10.47679839 176.89155259 -20.75 169 C-21.43433105 168.47253174 -22.11866211 167.94506348 -22.82373047 167.40161133 C-26.259456 164.82502321 -29.77878703 162.41186071 -33.453125 160.1875 C-34.10958008 159.78917969 -34.76603516 159.39085937 -35.44238281 158.98046875 C-42.29386604 156.35393604 -50.19626601 156.82136693 -57.4375 156.76171875 C-58.42300339 156.75187958 -59.40850677 156.74204041 -60.4238739 156.73190308 C-116.07997188 156.29173127 -167.98918205 166.11583334 -218 191 Z " fill="#FDFDFD" transform="translate(496,2)"/>
<path d="M0 0 C0.33 0 0.66 0 1 0 C4.11097548 34.70947243 4.11097548 34.70947243 4.65380859 48.28320312 C5.02488856 56.89527216 6.00277591 65.44130006 7 74 C7.40089844 73.46632813 7.80179687 72.93265625 8.21484375 72.3828125 C20.22619354 56.64004566 35.26116698 38.82170301 52 28 C52.99 28 53.98 28 55 28 C54.54560547 28.94746094 54.54560547 28.94746094 54.08203125 29.9140625 C42.02408453 55.66241643 37.83475729 83.08806347 34 111 C29.27541453 110.27930052 24.62687805 109.29367019 19.95751953 108.28637695 C-21.4912091 99.39325119 -62.97674272 97.59018265 -105 103 C-105.92474121 103.11746582 -106.84948242 103.23493164 -107.80224609 103.35595703 C-144.93517724 108.2345808 -180.88776989 120.80849177 -214.03735352 138.00366211 C-215.17901978 138.59546265 -215.17901978 138.59546265 -216.34375 139.19921875 C-217.33665039 139.72261841 -217.33665039 139.72261841 -218.34960938 140.2565918 C-220 141 -220 141 -222 141 C-222.20044922 140.48840332 -222.40089844 139.97680664 -222.60742188 139.44970703 C-237.11027474 102.34359645 -237.11027474 102.34359645 -258.0390625 68.64453125 C-259.65723025 66.4622612 -260.90298693 64.47122837 -262 62 C-244.38478363 69.78191204 -228.44770363 79.53428215 -213 91 C-212.12859375 91.64582031 -211.2571875 92.29164063 -210.359375 92.95703125 C-208.56615458 94.29567656 -206.78162719 95.64596333 -205 97 C-206.45707713 87.39010273 -207.99038968 77.79371519 -209.54956055 68.19995117 C-209.93412306 65.83328228 -210.31771064 63.46645692 -210.70117188 61.09960938 C-210.95570055 59.53124536 -211.21025777 57.96288597 -211.46484375 56.39453125 C-211.58951019 55.62448761 -211.71417664 54.85444397 -211.84262085 54.06106567 C-212.49693282 50.03402462 -213.16667945 46.01029045 -213.85986328 41.98974609 C-213.99912735 41.17583908 -214.13839142 40.36193207 -214.28187561 39.52336121 C-214.5474249 37.97580614 -214.81629589 36.42881595 -215.08909607 34.88252258 C-215.71650885 31.2146746 -216.15290988 27.72324142 -216 24 C-208.15683541 28.92218846 -200.45969741 34.02955709 -192.8125 39.25 C-190.37700457 40.90858528 -187.94050511 42.56569255 -185.50390625 44.22265625 C-184.85154999 44.66644119 -184.19919373 45.11022614 -183.52706909 45.56745911 C-174.11769568 51.96491101 -164.68226317 58.32387176 -155.25 64.6875 C-153.43464885 65.91243069 -151.61930049 67.13736549 -149.80395508 68.36230469 C-145.5362098 71.24189197 -141.26818925 74.12107083 -137 77 C-133.33793208 67.51576698 -129.9153209 57.9605993 -126.6171875 48.34375 C-126.23250305 47.22299072 -125.8478186 46.10223145 -125.45147705 44.94750977 C-123.85130881 40.28012516 -122.25380534 35.61185393 -120.66259766 30.94140625 C-119.48575139 27.49046782 -118.30195344 24.04197611 -117.1171875 20.59375 C-116.58579666 19.02481995 -116.58579666 19.02481995 -116.04367065 17.42419434 C-114.0689417 11.69292164 -111.84824591 6.35332965 -109 1 C-105.16230521 4.42399833 -102.83130186 8.30848847 -100.25 12.6875 C-95.66188609 20.32907736 -90.93781563 27.87294028 -86.125 35.375 C-85.45049805 36.4263916 -84.77599609 37.4777832 -84.08105469 38.56103516 C-77.75854127 48.39857577 -71.3920887 58.20754603 -65 68 C-61.85957169 66.61939823 -59.8553946 65.05371157 -57.53125 62.54296875 C-56.56034424 61.50245361 -56.56034424 61.50245361 -55.56982422 60.44091797 C-54.88678223 59.69729004 -54.20374023 58.95366211 -53.5 58.1875 C-52.78730957 57.42066895 -52.07461914 56.65383789 -51.34033203 55.86376953 C-49.22117553 53.58105238 -47.10973047 51.29142729 -45 49 C-43.92476676 47.83697363 -42.84927569 46.67418554 -41.7734375 45.51171875 C-39.8447401 43.42584452 -37.91952581 41.33682314 -35.99609375 39.24609375 C-32.66142841 35.62620478 -29.29924662 32.03222094 -25.9375 28.4375 C-17.65983518 19.57990026 -9.41304145 10.69990894 -1.4609375 1.546875 C-0.97882813 1.03640625 -0.49671875 0.5259375 0 0 Z " fill="#3E1A5C" transform="translate(483,40)"/>
<path d="M0 0 C1.29888429 0.84781293 2.59428623 1.70097765 3.88671875 2.55859375 C9.51694014 6.1871043 15.20087607 9.51205019 21.19921875 12.49609375 C21.84930908 12.8216626 22.49939941 13.14723145 23.16918945 13.48266602 C26.89906398 15.3057408 30.63000648 16.71853755 34.57421875 17.99609375 C34.8728039 23.93640693 35.08944893 29.87228507 35.23339844 35.81835938 C35.29343571 37.83638631 35.37510311 39.85389792 35.47949219 41.87011719 C36.36913986 59.5060739 36.36913986 59.5060739 32.15722656 64.38183594 C29.25942141 67.05684747 25.97798821 69.01707322 22.57421875 70.99609375 C21.04421172 72.13324443 19.52669504 73.28756769 18.02734375 74.46484375 C16.63078864 75.48145253 15.22971794 76.49188679 13.82421875 77.49609375 C13.06326904 78.04160889 12.30231934 78.58712402 11.51831055 79.14916992 C4.07216606 84.43475107 -3.54959587 89.37667706 -11.42578125 93.99609375 C-12.05581055 94.36605469 -12.68583984 94.73601562 -13.33496094 95.1171875 C-27.98330621 103.59979445 -43.33928286 109.22474519 -60.42578125 108.99609375 C-66.18129549 98.88304547 -71.80339492 88.70220014 -77.31152344 78.45214844 C-80.22958007 73.02507654 -83.1867425 67.62609938 -86.21875 62.26171875 C-86.82879883 61.17052734 -87.43884766 60.07933594 -88.06738281 58.95507812 C-89.24536042 56.85021982 -90.43573699 54.75224261 -91.63964844 52.66210938 C-92.42903809 51.24188477 -92.42903809 51.24188477 -93.234375 49.79296875 C-93.70673584 48.96120117 -94.17909668 48.12943359 -94.66577148 47.27246094 C-95.42578125 44.99609375 -95.42578125 44.99609375 -94.77709961 42.87207031 C-93.33474336 40.8697098 -91.99063005 39.63113173 -89.99609375 38.18359375 C-89.29339355 37.67143311 -88.59069336 37.15927246 -87.86669922 36.6315918 C-87.10244629 36.09187744 -86.33819336 35.55216309 -85.55078125 34.99609375 C-84.75430176 34.42866455 -83.95782227 33.86123535 -83.13720703 33.27661133 C-69.31624207 23.57341683 -54.73553379 15.11567822 -39.42578125 7.99609375 C-38.26949219 7.45339844 -37.11320312 6.91070312 -35.921875 6.3515625 C-29.5287047 3.47863614 -23.05940095 1.10540808 -16.36328125 -0.94140625 C-15.29122437 -1.27724731 -15.29122437 -1.27724731 -14.19750977 -1.61987305 C-8.16876723 -3.37518527 -5.38354614 -3.14909825 0 0 Z " fill="#FEFDFE" transform="translate(535.42578125,380.00390625)"/>
<path d="M0 0 C2.22203622 0.04107594 4.4259505 -0.02029833 6.64697266 -0.09008789 C16.7727821 -0.17268977 16.7727821 -0.17268977 20.87402344 3.24169922 C22.73116657 5.82156191 24.11570915 8.34897623 25.45556641 11.22827148 C25.86742187 11.97810303 26.27927734 12.72793457 26.70361328 13.50048828 C27.81521224 15.5285902 28.83294258 17.57964716 29.83056641 19.66577148 C30.17216797 20.35864258 30.51376953 21.05151367 30.86572266 21.76538086 C34.74097977 29.69204314 35.79435192 36.48944903 33.20556641 45.05249023 C32.64238904 46.68069599 32.05835713 48.30181174 31.45556641 49.91577148 C31.14159912 50.7786377 30.82763184 51.64150391 30.50415039 52.53051758 C23.41368505 71.43259658 11.7460304 90.50651683 -6.54443359 100.22827148 C-6.58930908 99.35203125 -6.63418457 98.47579102 -6.68041992 97.57299805 C-6.85564328 94.26230212 -7.04149618 90.95253394 -7.23413086 87.64282227 C-7.31476748 86.22150157 -7.39139395 84.79994657 -7.46362305 83.37817383 C-7.88152828 75.21028808 -8.65894452 67.48342634 -10.92993164 59.57495117 C-11.54443359 57.22827148 -11.54443359 57.22827148 -11.54443359 54.22827148 C-12.10388672 54.71295898 -12.66333984 55.19764648 -13.23974609 55.69702148 C-26.6525823 66.91032507 -44.87504105 77.16490492 -62.54443359 79.22827148 C-62.86081787 78.64561523 -63.17720215 78.06295898 -63.50317383 77.46264648 C-64.99488075 74.71719348 -66.48819668 71.97262056 -67.98193359 69.22827148 C-68.52237305 68.23472656 -69.0628125 67.24118164 -69.61962891 66.2175293 C-73.32156285 59.42737435 -77.07726484 52.67130258 -80.95239258 45.97827148 C-83.54443359 41.44447024 -83.54443359 41.44447024 -83.54443359 39.22827148 C-82.92439453 39.08131836 -82.30435547 38.93436523 -81.66552734 38.78295898 C-63.85004182 34.27073994 -48.3301354 26.00809095 -33.23193359 15.72827148 C-32.62293213 15.31424072 -32.01393066 14.90020996 -31.38647461 14.47363281 C-28.45200293 12.42690046 -25.76299881 10.44380171 -23.20605469 7.92236328 C-15.9245995 1.01011829 -9.65213259 -0.22499395 0 0 Z " fill="#FDFCFD" transform="translate(576.54443359375,481.771728515625)"/>
<path d="M0 0 C3.2709287 1.63546435 3.73557908 5.14813264 4.875 8.4375 C5.13821045 9.18942627 5.4014209 9.94135254 5.67260742 10.71606445 C10.59449655 25.24742769 13.19808953 39.97561783 13.24023438 55.30053711 C13.24983159 57.40064803 13.28085225 59.49973197 13.3125 61.59960938 C13.40964164 73.8162711 12.02043657 85.61714048 6.9375 96.875 C6.43089844 98.02742188 5.92429687 99.17984375 5.40234375 100.3671875 C4 103 4 103 2 104 C1.55011719 103.15179688 1.10023438 102.30359375 0.63671875 101.4296875 C-4.87059078 91.28963854 -11.1618907 81.03951811 -19.97167969 73.43481445 C-26.91791072 67.23189214 -30.10264933 62.10293105 -30.734375 52.67578125 C-30.82377359 49.84354903 -30.83538896 47.03019872 -30.78417969 44.19702148 C-30.74980966 41.29643674 -30.8655576 38.42681483 -30.9921875 35.52929688 C-31.18669315 22.56281269 -31.18669315 22.56281269 -27.45996094 18.19506836 C-23.68600923 15.07769024 -19.51953054 13.04158379 -15.078125 11.04833984 C-11.55673195 9.27192281 -8.5614956 6.83941115 -5.5 4.375 C-4.94523987 3.9378215 -4.39047974 3.50064301 -3.81890869 3.05021667 C-2.54033446 2.04053483 -1.26919774 1.02144338 0 0 Z " fill="#FDFDFD" transform="translate(624,379)"/>
</svg>
